<svg width="13" height="15" viewBox="0 0 13 15" fill="white" xmlns="http://www.w3.org/2000/svg" class="video-play-icon" data-v-799557a8=""><path fill-rule="evenodd" clip-rule="evenodd" d="M0.94698 0.934251C1.17888 0.516835 1.68914 0.375842 2.08668 0.619335L12.0866 6.74427C12.3426 6.90108 12.5 7.18887 12.5 7.50007C12.5 7.81128 12.3426 8.09906 12.0866 8.25587L2.08668 14.3808C1.82894 14.5387 1.51048 14.5398 1.25174 14.3838C0.993 14.2277 0.833464 13.9383 0.833464 13.625V4.8751C0.833464 4.39185 1.20656 4.00011 1.66679 4.00011C2.12702 4.00011 2.50011 4.39185 2.50011 4.8751V12.1016L10.0128 7.50007L1.2469 2.13093C0.849361 1.88744 0.715083 1.35167 0.94698 0.934251Z" data-v-799557a8=""></path></svg>