<svg width="21" height="22" viewBox="0 0 21 22" xmlns="http://www.w3.org/2000/svg" class="channel-icon google-icon" data-v-659e30db=""><path d="M0.710817 0C0.284327 0.142163 0 0.606285 0 1.2502V10.7041V20.1579C0 20.8019 0.250877 21.266 0.677367 21.4081L10.4197 10.7041L0.710817 0ZM2.38751 0.535204L11.0218 10.0602L13.9111 6.88656L2.38751 0.535204ZM14.7683 7.31306L11.6658 10.7041L14.7683 14.0951L19.0123 11.7745C19.7984 11.348 20.1203 11.1306 20.1203 10.7041C20.1203 10.2776 19.7984 10.0602 19.0123 9.63366L14.7683 7.31306ZM11.0595 11.3814L2.38751 20.9106L13.9822 14.5592L11.0595 11.3814Z" data-v-659e30db=""></path></svg>