<svg width="20" height="19" viewBox="0 0 20 19" fill="none" xmlns="http://www.w3.org/2000/svg">
<g opacity="0.8">
<path fill-rule="evenodd" clip-rule="evenodd" d="M14.3932 12.9719C14.3932 12.9719 14.3932 12.9719 14.3932 12.9718L12.9569 11.5355C11.8637 13.0707 10.0693 14.072 8.04109 14.072C4.71039 14.072 2.01033 11.3719 2.01033 8.04124C2.01033 4.71054 4.71039 2.01048 8.04109 2.01048C11.3718 2.01048 14.0718 4.71054 14.0718 8.04124C14.0718 8.58144 14.0008 9.10506 13.8676 9.60326L15.4457 11.1814C15.8554 10.2166 16.082 9.15526 16.082 8.04101C16.082 3.60008 12.4819 0 8.04101 0C3.60008 0 0 3.60008 0 8.04101C0 12.4819 3.60008 16.082 8.04101 16.082C9.89914 16.082 11.6101 15.4518 12.9717 14.3934L17.1574 18.5791H20.0003L14.3932 12.9719Z" fill="white"/>
</g>
</svg>
