<svg width="28" height="28" viewBox="0 0 28 28" xmlns="http://www.w3.org/2000/svg" class="channel-icon apple-icon" data-v-659e30db=""><path d="M14.4039 7.71811C15.4529 7.71811 16.7679 7.0061 17.551 6.05674C18.2602 5.19639 18.7773 3.99487 18.7773 2.79334C18.7773 2.63017 18.7626 2.467 18.733 2.3335C17.5658 2.378 16.1621 3.11968 15.3199 4.11353C14.655 4.87005 14.0493 6.05674 14.0493 7.2731C14.0493 7.45111 14.0788 7.62911 14.0936 7.68844C14.1675 7.70328 14.2857 7.71811 14.4039 7.71811ZM10.7101 25.6668C12.1433 25.6668 12.7786 24.7026 14.5664 24.7026C16.3837 24.7026 16.7827 25.6372 18.3784 25.6372C19.9446 25.6372 20.9936 24.1835 21.9835 22.7594C23.0917 21.1277 23.5497 19.5257 23.5793 19.4515C23.4758 19.4219 20.4765 18.1907 20.4765 14.7344C20.4765 11.738 22.8405 10.3882 22.9735 10.2843C21.4073 8.02962 19.0285 7.97028 18.3784 7.97028C16.6201 7.97028 15.1869 9.03831 14.2857 9.03831C13.3105 9.03831 12.0251 8.02962 10.5032 8.02962C7.60726 8.02962 4.66699 10.4327 4.66699 14.9718C4.66699 17.7902 5.76036 20.7717 7.1049 22.7001C8.25737 24.3318 9.26208 25.6668 10.7101 25.6668Z" data-v-659e30db=""></path></svg>