<svg viewBox="0 0 28 28" fill="none" xmlns="http://www.w3.org/2000/svg" class="nav-global-icon" data-v-6c51aa7b=""><circle cx="14" cy="14" r="14" fill="#181818" class="nav-global-circle" data-v-6c51aa7b=""></circle> <path fill-rule="evenodd" clip-rule="evenodd" d="M14 6C18.4183 6 22 9.58172 22 14C22 18.4183 18.4183 22 14 22C9.58172 22 6 18.4183 6 14C6 9.58172 9.58172 6 14 6ZM14 20.4C14.2681 20.4 14.8969 20.1633 15.5532 18.9131C15.8069 18.4299 16.029 17.8521 16.2025 17.2H11.7975C11.971 17.8521 12.1931 18.4299 12.4468 18.9131C13.1031 20.1633 13.7319 20.4 14 20.4ZM11.4942 15.6C11.4331 15.0915 11.4 14.5561 11.4 14C11.4 13.4439 11.4331 12.9085 11.4942 12.4H16.5058C16.5669 12.9085 16.6 13.4439 16.6 14C16.6 14.5561 16.5669 15.0915 16.5058 15.6H11.4942ZM17.8505 17.2C17.6369 18.1311 17.333 18.9699 16.9598 19.676C18.0382 19.1125 18.936 18.2506 19.5438 17.2H17.8505ZM20.1984 15.6H18.116C18.1711 15.083 18.2 14.5479 18.2 14C18.2 13.4521 18.1711 12.917 18.116 12.4H20.1984C20.33 12.9114 20.4 13.4475 20.4 14C20.4 14.5525 20.33 15.0886 20.1984 15.6ZM9.88402 15.6H7.80163C7.67001 15.0886 7.6 14.5525 7.6 14C7.6 13.4475 7.67001 12.9114 7.80163 12.4H9.88402C9.82892 12.917 9.8 13.4521 9.8 14C9.8 14.5479 9.82892 15.083 9.88402 15.6ZM8.45621 17.2H10.1495C10.3631 18.1311 10.667 18.9699 11.0402 19.676C9.9618 19.1125 9.06396 18.2506 8.45621 17.2ZM11.7975 10.8H16.2025C16.029 10.1479 15.8069 9.57012 15.5532 9.08688C14.8969 7.83672 14.2681 7.6 14 7.6C13.7319 7.6 13.1031 7.83672 12.4468 9.08688C12.1931 9.57012 11.971 10.1479 11.7975 10.8ZM17.8505 10.8H19.5438C18.936 9.74937 18.0382 8.88755 16.9598 8.32405C17.333 9.03014 17.6369 9.86886 17.8505 10.8ZM11.0402 8.32405C10.667 9.03014 10.3631 9.86886 10.1495 10.8H8.45621C9.06396 9.74937 9.9618 8.88755 11.0402 8.32405Z" class="nav-global-path" data-v-6c51aa7b=""></path></svg>