<svg version="1.1" id="logo" xmlns="http://www.w3.org/2000/svg" xmlns:xlink="http://www.w3.org/1999/xlink" viewBox="0 0 571.54 485.99" class="svg-logo desktop" data-v-6c51aa7b=""><g data-v-6c51aa7b=""><path d="M280.68,187.34c2.41-9.01,11.68-16.32,20.7-16.32c0.14,0,108.61,0.01,143.95,0.01
          c6.99,0,13.58-3.09,18.08-8.45l46.89-55.85c2.15-2.57,0.33-6.48-3.02-6.48H239.6c-10.72,0-20.1,7.2-22.87,17.56l-83.37,311.93
          c-0.74,2.79,1.66,5.4,4.5,4.9l66.12-11.66c9.06-1.6,16.37-8.3,18.75-17.18l35.18-131.29l153.93-0.06c7,0,13.63-3.09,18.13-8.45
          l46.88-55.85c2.15-2.57,0.33-6.48-3.02-6.48l-181.33-0.04C283.57,203.55,278.28,196.3,280.68,187.34z" class="logo-path" data-v-6c51aa7b=""></path> <path d="M171.2,51.29c-10.71,0-20.09,7.2-22.86,17.54l-25.63,95.66c-0.77,3.49,0.67,6.56,4.2,6.56h30.04
          c2.15,0,2.51,2.62,0.56,4.11l-44.91,34.18c-1.47,1.12-2.55,2.68-2.98,4.3l-1.09,4.07c-0.35,1.32,0.43,2.39,1.75,2.39H143
          c2.16,0,2.51,2.63,0.54,4.12l-43.77,32.91c-1.49,1.13-2.58,2.7-3.02,4.34l-1.41,5.29c-0.35,1.32,0.43,2.38,1.75,2.38l33.45,0
          c2.15,0,2.5,2.61,0.56,4.1l-45.36,34.93c-1.23,0.95-2.05,2.52-2.58,3.85l-22.72,84.79c-0.75,2.79,1.65,5.41,4.5,4.91l48.37-8.53
          c9.08-1.6,16.4-8.32,18.77-17.23l72.89-274.44c2.75-10.37,12.14-17.59,22.88-17.59h190.06c7,0,13.63-3.1,18.13-8.45l14.86-17.71
          c2.15-2.57,0.33-6.48-3.02-6.48H171.2z" class="logo-path" data-v-6c51aa7b=""></path></g></svg>